<svg id="visual" viewBox="0 0 1536 864" width="1536" height="864" xmlns="http://www.w3.org/2000/svg" xmlns:xlink="http://www.w3.org/1999/xlink" version="1.1"><rect x="0" y="0" width="1536" height="864" fill="#002233"></rect><path d="M0 621L51.2 615.7C102.3 610.3 204.7 599.7 307 626.3C409.3 653 511.7 717 614.2 743.3C716.7 769.7 819.3 758.3 921.8 734.3C1024.3 710.3 1126.7 673.7 1229 666.5C1331.3 659.3 1433.7 681.7 1484.8 692.8L1536 704L1536 865L1484.8 865C1433.7 865 1331.3 865 1229 865C1126.7 865 1024.3 865 921.8 865C819.3 865 716.7 865 614.2 865C511.7 865 409.3 865 307 865C204.7 865 102.3 865 51.2 865L0 865Z" fill="#3072e5" stroke-linecap="round" stroke-linejoin="miter"></path></svg>